<mxfile host="app.diagrams.net" agent="Mozilla/5.0 (Windows NT 10.0; Win64; x64) AppleWebKit/537.36 (KHTML, like Gecko) Chrome/140.0.0.0 Safari/537.36 Edg/140.0.0.0" version="28.2.3">
  <diagram name="第 1 页" id="A8QhKELC1sULjSnps-7w">
    <mxGraphModel dx="831" dy="533" grid="1" gridSize="10" guides="1" tooltips="1" connect="1" arrows="1" fold="1" page="1" pageScale="1" pageWidth="827" pageHeight="1169" math="0" shadow="0">
      <root>
        <mxCell id="0" />
        <mxCell id="1" parent="0" />
        <mxCell id="S9a2-Q1bycD8hYtJdePd-1" value="Virtual Device" style="rounded=0;whiteSpace=wrap;html=1;fillColor=#f8cecc;strokeColor=#b85450;" vertex="1" parent="1">
          <mxGeometry x="355" y="640" width="120" height="60" as="geometry" />
        </mxCell>
        <mxCell id="S9a2-Q1bycD8hYtJdePd-2" value="Buffer Cache" style="rounded=0;whiteSpace=wrap;html=1;fillColor=#fff2cc;strokeColor=#d6b656;" vertex="1" parent="1">
          <mxGeometry x="355" y="580" width="120" height="60" as="geometry" />
        </mxCell>
        <mxCell id="S9a2-Q1bycD8hYtJdePd-3" value="Virtual File System" style="rounded=0;whiteSpace=wrap;html=1;fillColor=#d5e8d4;strokeColor=#82b366;" vertex="1" parent="1">
          <mxGeometry x="355" y="520" width="120" height="60" as="geometry" />
        </mxCell>
        <mxCell id="S9a2-Q1bycD8hYtJdePd-6" value="File System Call" style="rounded=0;whiteSpace=wrap;html=1;fillColor=#f5f5f5;strokeColor=#666666;fontColor=#333333;" vertex="1" parent="1">
          <mxGeometry x="355" y="460" width="120" height="60" as="geometry" />
        </mxCell>
        <mxCell id="S9a2-Q1bycD8hYtJdePd-7" value="磁盘IO驱动层" style="text;html=1;align=center;verticalAlign=middle;whiteSpace=wrap;rounded=0;" vertex="1" parent="1">
          <mxGeometry x="192.5" y="715" width="90" height="30" as="geometry" />
        </mxCell>
        <mxCell id="S9a2-Q1bycD8hYtJdePd-8" value="（使用LRU算法）磁盘块缓存层" style="text;html=1;align=center;verticalAlign=middle;whiteSpace=wrap;rounded=0;" vertex="1" parent="1">
          <mxGeometry x="147.5" y="592.5" width="180" height="35" as="geometry" />
        </mxCell>
        <mxCell id="S9a2-Q1bycD8hYtJdePd-10" value="虚拟文件系统实现层" style="text;html=1;align=center;verticalAlign=middle;whiteSpace=wrap;rounded=0;" vertex="1" parent="1">
          <mxGeometry x="140" y="540" width="180" height="35" as="geometry" />
        </mxCell>
        <mxCell id="S9a2-Q1bycD8hYtJdePd-12" value="文件系统调用层" style="text;html=1;align=center;verticalAlign=middle;whiteSpace=wrap;rounded=0;" vertex="1" parent="1">
          <mxGeometry x="140" y="472.5" width="180" height="35" as="geometry" />
        </mxCell>
        <mxCell id="S9a2-Q1bycD8hYtJdePd-13" value="&lt;font style=&quot;font-size: 20px;&quot;&gt;Onix 文件系统的实现架构&lt;/font&gt;" style="text;html=1;align=center;verticalAlign=middle;whiteSpace=wrap;rounded=0;" vertex="1" parent="1">
          <mxGeometry x="254" y="360" width="320" height="40" as="geometry" />
        </mxCell>
        <mxCell id="S9a2-Q1bycD8hYtJdePd-14" value="Disk IO Driver" style="rounded=0;whiteSpace=wrap;html=1;fillColor=#f8cecc;strokeColor=#b85450;" vertex="1" parent="1">
          <mxGeometry x="355" y="700" width="120" height="60" as="geometry" />
        </mxCell>
        <mxCell id="S9a2-Q1bycD8hYtJdePd-15" value="虚拟设备实现层" style="text;html=1;align=center;verticalAlign=middle;whiteSpace=wrap;rounded=0;" vertex="1" parent="1">
          <mxGeometry x="185" y="655" width="105" height="30" as="geometry" />
        </mxCell>
      </root>
    </mxGraphModel>
  </diagram>
</mxfile>
